<?xml version="1.0" standalone="no"?>
<!DOCTYPE svg PUBLIC "-//W3C//DTD SVG 20010904//EN"
 "http://www.w3.org/TR/2001/REC-SVG-20010904/DTD/svg10.dtd">
<svg version="1.0" xmlns="http://www.w3.org/2000/svg"
 width="1248.000000pt" height="1248.000000pt" viewBox="0 0 1248.000000 1248.000000"
 preserveAspectRatio="xMidYMid meet">
<metadata>
Created by potrace 1.14, written by Peter Selinger 2001-2017
</metadata>
<g transform="translate(0.000000,1248.000000) scale(0.100000,-0.100000)"
fill="#000000" stroke="none">
<path d="M3767 10263 c-4 -3 -204 -6 -447 -7 l-440 -1 -72 -65 c-40 -36 -96
-89 -125 -117 -30 -29 -55 -53 -58 -53 -2 0 -30 -26 -62 -57 -33 -32 -110
-105 -173 -163 -62 -58 -128 -118 -145 -135 -18 -16 -78 -73 -135 -125 -56
-52 -123 -115 -150 -140 -26 -25 -77 -72 -112 -105 -227 -212 -297 -276 -328
-305 -113 -105 -259 -240 -294 -275 -23 -22 -89 -83 -146 -135 -57 -52 -125
-115 -151 -140 -25 -25 -88 -83 -139 -130 -50 -47 -117 -109 -148 -138 -32
-30 -102 -95 -156 -145 -55 -51 -123 -114 -152 -142 -29 -27 -95 -88 -145
-135 -51 -47 -115 -106 -141 -132 l-48 -46 2 -2678 3 -2678 2710 -1 c1684 -1
2718 3 2730 8 11 6 34 24 51 41 17 17 88 85 158 151 70 66 156 147 190 180 34
33 132 126 217 207 85 80 188 178 229 217 41 39 78 71 82 71 4 0 8 7 8 15 0 8
3 15 8 15 4 0 41 32 82 71 65 62 148 140 420 399 32 30 129 123 216 205 86 83
169 161 184 175 47 44 319 303 384 365 34 33 129 123 211 200 81 77 173 165
205 195 32 30 129 123 216 205 87 83 179 170 205 195 62 60 343 327 399 380
25 23 119 113 209 199 90 86 207 197 259 246 52 50 126 120 164 158 39 37 71
67 72 67 2 0 49 45 106 100 56 55 103 100 104 100 1 0 61 57 133 128 l131 127
0 612 1 612 -708 -2 -708 -1 -94 -89 c-52 -48 -123 -116 -159 -150 -36 -34
-80 -74 -98 -89 -19 -16 -31 -28 -28 -28 3 0 -13 -17 -36 -37 -23 -21 -78 -72
-123 -114 -44 -42 -97 -93 -118 -112 -21 -19 -95 -89 -164 -154 -141 -133
-172 -162 -343 -323 -67 -63 -146 -137 -175 -165 -49 -47 -281 -266 -365 -345
-21 -19 -100 -93 -176 -165 -75 -71 -150 -141 -164 -155 -15 -14 -90 -84 -166
-156 -76 -73 -159 -151 -184 -174 -25 -23 -105 -99 -179 -169 -208 -197 -211
-200 -337 -318 -65 -61 -142 -133 -170 -160 -28 -26 -109 -102 -179 -168 -163
-154 -184 -174 -350 -330 -282 -266 -330 -311 -375 -355 -26 -25 -91 -86 -144
-135 l-97 -90 -1419 -1 c-781 0 -1420 2 -1421 5 -1 4 -2 627 -3 1385 l-1 1379
26 26 c14 14 74 71 134 126 59 55 131 123 161 150 45 43 96 91 317 297 15 14
76 70 134 125 58 54 120 112 137 128 18 17 85 80 150 140 65 61 141 132 169
158 182 169 264 247 301 282 38 35 204 191 305 284 20 18 70 66 112 105 42 39
129 121 194 181 65 61 139 130 166 155 26 25 89 83 139 130 50 47 113 105 139
130 26 25 98 92 160 150 62 58 132 123 156 145 23 22 90 85 149 140 113 105
122 113 312 291 65 62 135 126 154 144 19 18 85 79 145 135 61 57 131 123 158
147 26 25 47 46 47 49 0 2 -255 3 -567 2 -313 -1 -691 -3 -841 -3 -149 -1
-276 1 -281 4 -4 3 -11 3 -14 -1z"/>
<path d="M7033 10256 c-16 -9 -103 -90 -256 -238 -44 -43 -81 -78 -82 -78 -2
0 -30 -26 -62 -57 -33 -32 -109 -105 -170 -163 -241 -229 -428 -407 -468 -445
-23 -22 -115 -110 -205 -195 -90 -85 -184 -175 -210 -200 -41 -39 -279 -265
-406 -385 -56 -53 -345 -329 -398 -380 -23 -22 -106 -101 -185 -175 -78 -74
-169 -160 -200 -190 -32 -30 -127 -120 -211 -200 -84 -80 -176 -167 -205 -195
-28 -27 -125 -120 -215 -205 -90 -85 -189 -180 -221 -210 -31 -30 -122 -116
-200 -190 -79 -74 -164 -155 -189 -180 -116 -113 -322 -305 -331 -308 -5 -2
-7 -8 -3 -13 3 -5 1 -9 -5 -9 -6 0 -37 -26 -70 -57 -32 -32 -124 -120 -203
-195 l-144 -137 -1 -617 c-1 -603 -1 -616 18 -611 10 3 22 1 25 -4 3 -5 10 -7
15 -3 6 3 313 6 683 7 l673 0 91 86 c50 47 138 131 197 186 58 55 130 123 159
150 29 28 117 111 196 185 79 74 167 158 196 185 29 28 103 97 164 155 62 58
138 130 170 160 32 30 113 107 180 170 68 63 137 129 155 145 17 17 91 86 164
155 73 69 159 150 191 180 32 30 111 105 175 165 65 61 146 138 182 173 35 34
66 62 67 62 2 0 30 26 63 58 63 61 321 305 389 369 48 44 265 249 340 320 28
26 111 104 184 173 73 69 152 143 175 165 64 60 294 277 345 325 82 77 302
284 339 320 21 19 52 49 70 65 l32 30 1420 1 c780 0 1419 -2 1420 -5 1 -3 2
-626 2 -1385 l2 -1378 -26 -27 c-14 -14 -74 -71 -133 -126 -59 -55 -125 -116
-145 -135 -21 -19 -91 -84 -156 -145 -65 -60 -137 -128 -160 -150 -23 -22 -95
-89 -160 -150 -65 -60 -135 -126 -155 -145 -20 -19 -90 -84 -155 -145 -134
-124 -138 -128 -301 -281 -66 -62 -135 -126 -154 -144 -55 -50 -257 -240 -311
-292 -27 -25 -49 -45 -49 -43 0 2 -28 -25 -63 -59 -35 -33 -117 -110 -182
-171 -130 -121 -227 -211 -284 -265 -20 -19 -95 -89 -166 -155 -141 -132 -144
-135 -305 -285 -63 -58 -130 -121 -150 -140 -33 -32 -135 -127 -344 -322 -43
-40 -100 -93 -126 -118 -26 -25 -90 -84 -141 -132 -161 -149 -199 -185 -199
-189 0 -3 1361 -2 1378 1 6 2 203 1 210 -1 4 -1 12 0 17 1 6 1 231 2 500 3
l490 1 47 48 c27 26 49 48 51 48 2 0 31 26 63 57 33 32 99 94 148 138 48 44
113 105 145 135 31 30 99 94 151 142 52 47 113 103 136 125 22 21 91 85 153
143 62 58 132 123 156 145 23 22 88 83 145 135 56 52 121 113 144 135 39 36
224 209 300 279 50 45 232 216 296 276 49 46 138 130 306 285 17 17 80 75 139
130 59 55 122 113 139 129 17 15 85 79 151 141 66 61 139 130 163 151 l42 39
-2 2680 -3 2679 -2713 1 c-1552 0 -2720 -4 -2729 -9z"/>
</g>
</svg>
